<?xml version="1.0" encoding="UTF-8"?>
<svg id="Layer_2" data-name="Layer 2" xmlns="http://www.w3.org/2000/svg" viewBox="0 0 1920 444.18">
  <defs>
    <style>
      .cls-1 {
        fill: #00e2cc;
      }
    </style>
  </defs>
  <g id="Layer_1-2" data-name="Layer 1">
    <rect class="cls-1" x="853.67" y="147.55" width="74.54" height="223.63" rx="10.29" ry="10.29"/>
    <path class="cls-1" d="M1379.73,73.01c-2.73,0-5.35,1.08-7.28,3.01l-68.51,68.51c-1.93,1.93-3.01,4.55-3.01,7.28v140.56c0,2.73,1.08,5.35,3.01,7.28l68.51,68.51c1.93,1.93,4.55,3.01,7.28,3.01h140.56c2.73,0,5.35-1.08,7.28-3.01l68.51-68.51c1.93-1.93,3.02-4.55,3.02-7.28v-140.56c0-2.73-1.08-5.35-3.02-7.28l-68.51-68.51c-1.93-1.93-4.55-3.01-7.28-3.01h-140.56ZM1524.55,286.34c0,5.69-4.61,10.29-10.29,10.29h-128.49c-5.69,0-10.3-4.61-10.3-10.29v-128.49c0-5.69,4.61-10.29,10.3-10.29h128.49c5.69,0,10.29,4.61,10.29,10.29v128.49Z"/>
    <path class="cls-1" d="M1721.21,296.63c-5.69,0-10.29-4.61-10.29-10.29V83.3c0-5.69-4.61-10.29-10.3-10.29h-53.95c-5.69,0-10.29,4.61-10.29,10.29v209.07c0,2.73,1.08,5.35,3.01,7.28l68.51,68.51c1.93,1.93,4.55,3.02,7.28,3.02h140.56c2.73,0,5.35-1.08,7.28-3.02l53.95-53.95c6.48-6.48,1.89-17.58-7.28-17.58h-188.48Z"/>
    <path class="cls-1" d="M928.22,122.69v-39.39c0-5.69-4.61-10.3-10.29-10.3h-39.39c-9.17,0-13.76,11.09-7.28,17.58l39.39,39.39c6.48,6.48,17.58,1.89,17.58-7.28"/>
    <path class="cls-1" d="M813.39,144.53l-68.51-68.51c-1.93-1.93-4.55-3.01-7.28-3.01h-209.07c-5.69,0-10.3,4.61-10.3,10.29v277.58c0,5.69,4.61,10.3,10.3,10.3h53.95c5.69,0,10.29-4.61,10.29-10.29v-203.04c0-5.69,4.61-10.3,10.29-10.3h128.49c5.69,0,10.3,4.61,10.3,10.3v53.53c0,5.69-4.61,10.3-10.29,10.3h-91.22c-5.69,0-10.29,4.61-10.29,10.29v53.95c0,5.69,4.61,10.3,10.29,10.3h97.25c2.73,0,5.35-1.08,7.28-3.02l68.51-68.51c1.93-1.93,3.01-4.55,3.01-7.27v-65.6c0-2.73-1.08-5.35-3.01-7.28"/>
    <path class="cls-1" d="M1260.64,144.53l-68.51-68.51c-1.93-1.93-4.55-3.01-7.28-3.01h-209.07c-5.69,0-10.3,4.61-10.3,10.29v277.58c0,5.69,4.61,10.3,10.3,10.3h53.95c5.69,0,10.29-4.61,10.29-10.29v-203.04c0-5.69,4.61-10.3,10.29-10.3h128.49c5.69,0,10.3,4.61,10.3,10.3v53.53c0,5.69-4.61,10.3-10.29,10.3h-91.22c-5.69,0-10.29,4.61-10.29,10.29v53.95c0,5.69,4.61,10.3,10.29,10.3h97.25c2.73,0,5.35-1.08,7.28-3.02l68.51-68.51c1.93-1.93,3.01-4.55,3.01-7.27v-65.6c0-2.73-1.08-5.35-3.01-7.28"/>
    <path class="cls-1" d="M437.69,142.18L301.51,5.99c-3.84-3.84-9.05-5.99-14.47-5.99h-132.52c-4.06,0-7.96,1.61-10.84,4.49L4.49,143.68c-2.88,2.87-4.49,6.77-4.49,10.84v120.84c0,11.3,9.16,20.47,20.46,20.47h127.71v-127.19c0-11.3,9.16-20.47,20.47-20.47h106.41c11.3,0,20.47,9.16,20.47,20.47v106.41c0,11.3-9.16,20.47-20.47,20.47l-126.88.49v127.71c0,11.3,9.16,20.47,20.47,20.47l121.15-.31c4,0,7.84-1.59,10.7-4.39l138.58-136.09c2.95-2.88,4.62-6.84,4.62-10.96v-135.77c0-5.43-2.15-10.64-5.99-14.47"/>
  </g>
</svg>